<svg id="visual" viewBox="0 0 675 900" width="675" height="900" xmlns="http://www.w3.org/2000/svg" xmlns:xlink="http://www.w3.org/1999/xlink" version="1.1"><rect x="0" y="0" width="675" height="900" fill="#CCCCCC"></rect><path d="M301 900L301 871L572 871L572 842L515 842L515 813L563 813L563 784L412 784L412 755L406 755L406 726L664 726L664 697L331 697L331 668L399 668L399 639L536 639L536 610L657 610L657 581L311 581L311 552L390 552L390 523L421 523L421 494L460 494L460 465L395 465L395 435L317 435L317 406L283 406L283 377L629 377L629 348L427 348L427 319L283 319L283 290L306 290L306 261L476 261L476 232L411 232L411 203L458 203L458 174L348 174L348 145L543 145L543 116L640 116L640 87L452 87L452 58L432 58L432 29L611 29L611 0" fill="none" stroke-linecap="square" stroke-linejoin="miter" stroke="#691638" stroke-width="20"></path></svg>