<svg width="32" height="33" viewBox="0 0 32 33" fill="none" xmlns="http://www.w3.org/2000/svg">
<circle cx="16" cy="16.8745" r="13.5" fill="#353535" stroke="#353535" stroke-width="5"/>
<path d="M19.193 16.0976C20.6326 16.4333 21.6433 16.8398 22.2251 17.3172C23.0606 17.996 23.4783 18.8762 23.4783 19.9577C23.4783 21.099 23.0195 22.0426 22.1021 22.7885C20.9757 23.6911 19.3384 24.1423 17.1902 24.1423H9.48112V23.7283C10.1823 23.7283 10.6559 23.6649 10.9021 23.5381C11.1557 23.4039 11.331 23.2323 11.428 23.0235C11.5324 22.8146 11.5846 22.2999 11.5846 21.4794V11.6333C11.5846 10.8128 11.5324 10.2981 11.428 10.0892C11.331 9.87292 11.1557 9.70136 10.9021 9.57455C10.6485 9.44775 10.1748 9.38435 9.48112 9.38435V8.97036H16.7538C18.4918 8.97036 19.7226 9.127 20.4461 9.44029C21.1697 9.74612 21.7403 10.2086 22.158 10.8277C22.5757 11.4393 22.7846 12.092 22.7846 12.7857C22.7846 13.5167 22.5198 14.1694 21.9902 14.7438C21.4606 15.3107 20.5282 15.7619 19.193 16.0976ZM15.1203 15.7955C16.1795 15.7955 16.9589 15.6762 17.4587 15.4375C17.9659 15.1988 18.3538 14.8631 18.6223 14.4305C18.8909 13.9978 19.0251 13.4459 19.0251 12.7745C19.0251 12.1032 18.8909 11.555 18.6223 11.1298C18.3613 10.6972 17.9846 10.369 17.4923 10.1452C17 9.92141 16.2093 9.81325 15.1203 9.82071V15.7955ZM15.1203 16.6682V21.5354L15.1091 22.0948C15.1091 22.4976 15.2098 22.8034 15.4112 23.0123C15.62 23.2137 15.9258 23.3144 16.3286 23.3144C16.9254 23.3144 17.4736 23.1838 17.9734 22.9228C18.4806 22.6542 18.8685 22.2701 19.137 21.7703C19.4056 21.2631 19.5398 20.6999 19.5398 20.0808C19.5398 19.3722 19.3757 18.7382 19.0475 18.1787C18.7193 17.6118 18.268 17.2165 17.6937 16.9927C17.1193 16.7689 16.2615 16.6608 15.1203 16.6682Z" fill="white"/>
</svg>
