<svg width="108" height="108" viewBox="0 0 108 108" fill="none" xmlns="http://www.w3.org/2000/svg">
<g clip-path="url(#clip0_13_169)" filter="url(#filter0_di_13_169)">
<path d="M77.913 0H30.087C15.6795 0 4 11.6795 4 26.087V73.913C4 88.3205 15.6795 100 30.087 100H77.913C92.3205 100 104 88.3205 104 73.913V26.087C104 11.6795 92.3205 0 77.913 0Z" fill="#CD3E3E"/>
<path d="M42.3074 73.6786C41.484 74.1177 40.6469 74.1864 39.796 73.8845C38.9452 73.5826 38.3002 73.0199 37.861 72.1965L32.9205 62.3155C32.4813 61.4921 32.4128 60.655 32.7147 59.8041C33.0166 58.9532 33.5793 58.3082 34.4027 57.8691C35.2261 57.4299 36.0633 57.3613 36.9141 57.6632C37.765 57.9651 38.4099 58.5278 38.8491 59.3512L43.7895 69.2322C44.2288 70.0556 44.2973 70.8928 43.9954 71.7436C43.6935 72.5945 43.1309 73.2394 42.3074 73.6786ZM71.9503 73.6786C71.1269 74.1177 70.2897 74.1864 69.4389 73.8845C68.588 73.5826 67.9431 73.0199 67.5038 72.1965L52.6824 42.5536C52.2433 41.7302 52.1747 40.8931 52.4766 40.0422C52.7785 39.1913 53.3412 38.5463 54.1646 38.1072C54.988 37.668 55.8252 37.5994 56.676 37.9013C57.5269 38.2032 58.1718 38.7659 58.611 39.5893L73.4324 69.2322C73.8716 70.0556 73.9402 70.8928 73.6383 71.7436C73.3364 72.5945 72.7737 73.2394 71.9503 73.6786ZM56.4701 74.008C55.537 74.008 54.7547 73.6923 54.1234 73.0611C53.4921 72.4298 53.1765 71.6475 53.1765 70.7143C53.1765 69.7812 53.4921 68.9989 54.1234 68.3676C54.7547 67.7363 55.537 67.4207 56.4701 67.4207C57.4033 67.4207 58.1855 67.7363 58.8169 68.3676C59.4481 68.9989 59.7638 69.7812 59.7638 70.7143C59.7638 71.6475 59.4481 72.4298 58.8169 73.0611C58.1855 73.6923 57.4033 74.008 56.4701 74.008ZM88.4186 73.6786C87.5952 74.1177 86.758 74.1864 85.9072 73.8845C85.0563 73.5826 84.4112 73.0199 83.9721 72.1965L82.3253 68.9029C81.8861 68.0794 81.8175 67.2423 82.1194 66.3914C82.4213 65.5406 82.984 64.8955 83.8074 64.4564C84.6309 64.0172 85.468 63.9486 86.3189 64.2506C87.1697 64.5525 87.8147 65.1151 88.2538 65.9386L89.9007 69.2322C90.3398 70.0556 90.4085 70.8928 90.1066 71.7436C89.8046 72.5945 89.242 73.2394 88.4186 73.6786ZM52.1884 63.7976C51.365 64.2368 50.5278 64.3054 49.677 64.0035C48.8261 63.7016 48.1812 63.139 47.7419 62.3155L32.9205 32.6727C32.4813 31.8492 32.4128 31.0121 32.7147 30.1612C33.0166 29.3104 33.5793 28.6653 34.4027 28.2262C35.2261 27.7871 36.0633 27.7185 36.9141 28.0204C37.765 28.3223 38.4099 28.885 38.8491 29.7084L53.6705 59.3512C54.1097 60.1747 54.1783 61.0118 53.8764 61.8627C53.5745 62.7135 53.0118 63.3585 52.1884 63.7976ZM80.3491 60.8333C79.4159 60.8333 78.6336 60.5177 78.0024 59.8865C77.3711 59.2551 77.0554 58.473 77.0554 57.5397C77.0554 56.6065 77.3711 55.8243 78.0024 55.193C78.6336 54.5617 79.4159 54.2461 80.3491 54.2461C81.2823 54.2461 82.0646 54.5617 82.6958 55.193C83.3271 55.8243 83.6428 56.6065 83.6428 57.5397C83.6428 58.473 83.3271 59.2551 82.6958 59.8865C82.0646 60.5177 81.2823 60.8333 80.3491 60.8333ZM30.9443 54.2461C30.0112 54.2461 29.2289 53.9304 28.5976 53.2992C27.9663 52.6679 27.6507 51.8856 27.6507 50.9524C27.6507 50.0192 27.9663 49.237 28.5976 48.6057C29.2289 47.9744 30.0112 47.6588 30.9443 47.6588C31.8775 47.6588 32.6598 47.9744 33.2911 48.6057C33.9224 49.237 34.238 50.0192 34.238 50.9524C34.238 51.8856 33.9224 52.6679 33.2911 53.2992C32.6598 53.9304 31.8775 54.2461 30.9443 54.2461ZM76.8908 50.6231C76.0673 51.0622 75.2302 51.1309 74.3793 50.829C73.5285 50.527 72.8835 49.9643 72.4443 49.141L64.2102 32.6727C63.7711 31.8492 63.7025 31.0121 64.0044 30.1612C64.3063 29.3104 64.869 28.6653 65.6924 28.2262C66.5157 27.7871 67.3529 27.7185 68.2037 28.0204C69.0546 28.3223 69.6996 28.885 70.1388 29.7084L78.3729 46.1767C78.8121 47 78.8807 47.8371 78.5788 48.688C78.2769 49.5389 77.7142 50.1839 76.8908 50.6231ZM27.486 44.0357C26.6626 44.4749 25.8254 44.5435 24.9746 44.2416C24.1237 43.9397 23.4788 43.3771 23.0395 42.5536L18.0991 32.6727C17.6599 31.8492 17.5913 31.0121 17.8933 30.1612C18.1952 29.3104 18.7578 28.6653 19.5813 28.2262C20.4047 27.7871 21.2418 27.7185 22.0927 28.0204C22.9435 28.3223 23.5885 28.885 24.0276 29.7084L28.9681 39.5893C29.4073 40.4128 29.4759 41.2499 29.174 42.1008C28.8721 42.9516 28.3094 43.5966 27.486 44.0357ZM51.5296 34.4842C50.5965 34.4842 49.8142 34.1685 49.183 33.5372C48.5516 32.906 48.236 32.1237 48.236 31.1905C48.236 30.2573 48.5516 29.4751 49.183 28.8438C49.8142 28.2125 50.5965 27.8969 51.5296 27.8969C52.4629 27.8969 53.2451 28.2125 53.8764 28.8438C54.5076 29.4751 54.8233 30.2573 54.8233 31.1905C54.8233 32.1237 54.5076 32.906 53.8764 33.5372C53.2451 34.1685 52.4629 34.4842 51.5296 34.4842Z" fill="white"/>
</g>
<defs>
<filter id="filter0_di_13_169" x="0" y="0" width="108" height="108" filterUnits="userSpaceOnUse" color-interpolation-filters="sRGB">
<feFlood flood-opacity="0" result="BackgroundImageFix"/>
<feColorMatrix in="SourceAlpha" type="matrix" values="0 0 0 0 0 0 0 0 0 0 0 0 0 0 0 0 0 0 127 0" result="hardAlpha"/>
<feOffset dy="4"/>
<feGaussianBlur stdDeviation="2"/>
<feComposite in2="hardAlpha" operator="out"/>
<feColorMatrix type="matrix" values="0 0 0 0 0 0 0 0 0 0 0 0 0 0 0 0 0 0 0.25 0"/>
<feBlend mode="normal" in2="BackgroundImageFix" result="effect1_dropShadow_13_169"/>
<feBlend mode="normal" in="SourceGraphic" in2="effect1_dropShadow_13_169" result="shape"/>
<feColorMatrix in="SourceAlpha" type="matrix" values="0 0 0 0 0 0 0 0 0 0 0 0 0 0 0 0 0 0 127 0" result="hardAlpha"/>
<feOffset dy="4"/>
<feGaussianBlur stdDeviation="2"/>
<feComposite in2="hardAlpha" operator="arithmetic" k2="-1" k3="1"/>
<feColorMatrix type="matrix" values="0 0 0 0 0 0 0 0 0 0 0 0 0 0 0 0 0 0 0.25 0"/>
<feBlend mode="normal" in2="shape" result="effect2_innerShadow_13_169"/>
</filter>
<clipPath id="clip0_13_169">
<rect width="100" height="100" fill="white" transform="translate(4)"/>
</clipPath>
</defs>
</svg>
