<svg width="258" height="258" viewBox="0 0 258 258" fill="none" xmlns="http://www.w3.org/2000/svg">
<g filter="url(#filter0_d_42_1521)">
<rect x="4" width="250" height="250" rx="66" fill="#C49F6C"/>
<path d="M60.3242 208.721C60.3242 212.601 63.4987 215.776 67.3787 215.776C71.3468 215.776 74.5214 212.601 74.5214 208.721V47.5268C74.5214 44.705 76.3731 42.8533 79.0185 42.8533H176.017C178.663 42.8533 180.514 44.705 180.514 47.5268V208.721C180.514 212.601 183.689 215.776 187.658 215.776C191.537 215.776 194.712 212.601 194.712 208.721V46.645C194.712 35.8869 187.393 28.6561 176.282 28.6561H78.754C67.7314 28.6561 60.3242 35.8869 60.3242 46.645V208.721Z" fill="white"/>
<path d="M85.0278 210.353C85.0278 212.03 88.4452 212.911 92.5033 212.206L159.568 199.943C164.908 198.972 167.044 198.267 167.044 195.973V68.8477C167.044 66.6422 164.908 65.8482 159.782 64.9661L92.5033 52.6152C88.4452 51.9094 85.0278 52.7916 85.0278 54.556V210.353Z" fill="white"/>
<g clip-path="url(#clip0_42_1521)">
<path d="M124.41 106.112C124.866 106.112 125.112 105.83 125.182 105.407C126.234 99.6921 126.129 99.4099 132.234 98.3163C132.655 98.2105 132.936 97.9636 132.936 97.505C132.936 97.0817 132.655 96.7994 132.234 96.7289C126.129 95.6353 126.234 95.3531 125.182 89.6383C125.112 89.215 124.866 88.9328 124.41 88.9328C123.954 88.9328 123.708 89.215 123.638 89.6383C122.586 95.3531 122.691 95.6353 116.586 96.7289C116.13 96.7994 115.884 97.0817 115.884 97.505C115.884 97.9636 116.13 98.2105 116.586 98.3163C122.691 99.4099 122.586 99.6921 123.638 105.407C123.708 105.83 123.954 106.112 124.41 106.112Z" fill="#C49F6C"/>
<path d="M107.429 130.383C108.095 130.383 108.551 129.924 108.622 129.289C109.885 119.87 110.2 119.87 119.884 118.001C120.48 117.895 120.936 117.471 120.936 116.801C120.936 116.166 120.48 115.708 119.884 115.637C110.2 114.261 109.85 113.944 108.622 104.384C108.551 103.714 108.095 103.255 107.429 103.255C106.797 103.255 106.341 103.714 106.236 104.419C105.113 113.838 104.587 113.803 94.9735 115.637C94.377 115.743 93.9209 116.166 93.9209 116.801C93.9209 117.507 94.377 117.895 95.1138 118.001C104.657 119.553 105.113 119.8 106.236 129.218C106.341 129.924 106.797 130.383 107.429 130.383Z" fill="#C49F6C"/>
<path d="M131.217 169.398C132.129 169.398 132.795 168.728 132.971 167.776C135.462 148.48 138.164 145.516 157.179 143.4C158.162 143.294 158.828 142.588 158.828 141.636C158.828 140.718 158.162 140.013 157.179 139.907C138.164 137.791 135.462 134.828 132.971 115.496C132.795 114.543 132.129 113.909 131.217 113.909C130.304 113.909 129.638 114.543 129.497 115.496C127.006 134.828 124.27 137.791 105.289 139.907C104.271 140.013 103.604 140.718 103.604 141.636C103.604 142.588 104.271 143.294 105.289 143.4C124.235 145.904 126.866 148.48 129.497 167.776C129.638 168.728 130.304 169.398 131.217 169.398Z" fill="#C49F6C"/>
</g>
</g>
<defs>
<filter id="filter0_d_42_1521" x="0" y="0" width="258" height="258" filterUnits="userSpaceOnUse" color-interpolation-filters="sRGB">
<feFlood flood-opacity="0" result="BackgroundImageFix"/>
<feColorMatrix in="SourceAlpha" type="matrix" values="0 0 0 0 0 0 0 0 0 0 0 0 0 0 0 0 0 0 127 0" result="hardAlpha"/>
<feOffset dy="4"/>
<feGaussianBlur stdDeviation="2"/>
<feComposite in2="hardAlpha" operator="out"/>
<feColorMatrix type="matrix" values="0 0 0 0 0 0 0 0 0 0 0 0 0 0 0 0 0 0 0.25 0"/>
<feBlend mode="normal" in2="BackgroundImageFix" result="effect1_dropShadow_42_1521"/>
<feBlend mode="normal" in="SourceGraphic" in2="effect1_dropShadow_42_1521" result="shape"/>
</filter>
<clipPath id="clip0_42_1521">
<rect width="66.2055" height="86.9565" fill="white" transform="translate(93.9209 88.9328)"/>
</clipPath>
</defs>
</svg>
