<svg width="438" height="114" viewBox="0 0 438 114" fill="none" xmlns="http://www.w3.org/2000/svg">
<rect width="437.717" height="113.369" rx="26.263" fill="black"/>
<path d="M27.77 78.8148V23.706H39.4214V46.4438H63.074V23.706H74.6985V78.8148H63.074V56.0502H39.4214V78.8148H27.77ZM118.344 23.706H129.996V59.4945C129.996 63.5128 129.036 67.0289 127.116 70.0426C125.215 73.0564 122.551 75.4064 119.125 77.0927C115.698 78.761 111.707 79.5952 107.15 79.5952C102.576 79.5952 98.5754 78.761 95.1491 77.0927C91.7227 75.4064 89.0588 73.0564 87.1572 70.0426C85.2557 67.0289 84.3049 63.5128 84.3049 59.4945V23.706H95.9563V58.4988C95.9563 60.5977 96.4138 62.4634 97.3287 64.0958C98.2615 65.7283 99.571 67.0109 101.257 67.9437C102.944 68.8766 104.908 69.343 107.15 69.343C109.411 69.343 111.375 68.8766 113.043 67.9437C114.73 67.0109 116.03 65.7283 116.945 64.0958C117.878 62.4634 118.344 60.5977 118.344 58.4988V23.706ZM169.477 39.5552C169.262 37.3846 168.338 35.6983 166.706 34.4964C165.073 33.2945 162.858 32.6935 160.059 32.6935C158.158 32.6935 156.552 32.9626 155.243 33.5008C153.933 34.021 152.929 34.7475 152.229 35.6803C151.547 36.6132 151.206 37.6716 151.206 38.8556C151.171 39.8422 151.377 40.7033 151.825 41.4388C152.292 42.1743 152.929 42.8111 153.736 43.3493C154.543 43.8695 155.476 44.327 156.534 44.7216C157.593 45.0984 158.723 45.4213 159.925 45.6903L164.876 46.8743C167.28 47.4125 169.486 48.1301 171.495 49.027C173.505 49.924 175.245 51.0272 176.716 52.3368C178.187 53.6463 179.326 55.1891 180.133 56.965C180.958 58.741 181.38 60.7771 181.398 63.0733C181.38 66.4458 180.519 69.3699 178.815 71.8455C177.128 74.3031 174.689 76.2137 171.495 77.577C168.32 78.9225 164.49 79.5952 160.005 79.5952C155.557 79.5952 151.682 78.9135 148.381 77.5501C145.098 76.1867 142.533 74.1686 140.685 71.4957C138.855 68.8048 137.896 65.4771 137.806 61.5126H149.081C149.206 63.3603 149.735 64.9031 150.668 66.1409C151.619 67.3607 152.884 68.2846 154.462 68.9125C156.059 69.5224 157.862 69.8273 159.871 69.8273C161.844 69.8273 163.557 69.5403 165.01 68.9663C166.481 68.3922 167.621 67.5939 168.428 66.5714C169.235 65.5489 169.639 64.3739 169.639 63.0464C169.639 61.8086 169.271 60.7681 168.536 59.925C167.818 59.0819 166.76 58.3643 165.36 57.7723C163.979 57.1803 162.284 56.6421 160.275 56.1578L154.274 54.6509C149.628 53.5207 145.959 51.7537 143.268 49.3499C140.577 46.9461 139.241 43.7081 139.259 39.6359C139.241 36.2992 140.129 33.3841 141.923 30.8906C143.735 28.3971 146.219 26.4507 149.377 25.0515C152.534 23.6522 156.122 22.9526 160.14 22.9526C164.23 22.9526 167.8 23.6522 170.85 25.0515C173.917 26.4507 176.303 28.3971 178.007 30.8906C179.712 33.3841 180.591 36.2723 180.644 39.5552H169.477ZM189.235 78.8148V23.706H200.886V46.4438H224.539V23.706H236.164V78.8148H224.539V56.0502H200.886V78.8148H189.235Z" fill="white"/>
<path d="M27.77 78.8148V23.706H39.4214V46.4438H63.074V23.706H74.6985V78.8148H63.074V56.0502H39.4214V78.8148H27.77ZM118.344 23.706H129.996V59.4945C129.996 63.5128 129.036 67.0289 127.116 70.0426C125.215 73.0564 122.551 75.4064 119.125 77.0927C115.698 78.761 111.707 79.5952 107.15 79.5952C102.576 79.5952 98.5754 78.761 95.1491 77.0927C91.7227 75.4064 89.0588 73.0564 87.1572 70.0426C85.2557 67.0289 84.3049 63.5128 84.3049 59.4945V23.706H95.9563V58.4988C95.9563 60.5977 96.4138 62.4634 97.3287 64.0958C98.2615 65.7283 99.571 67.0109 101.257 67.9437C102.944 68.8766 104.908 69.343 107.15 69.343C109.411 69.343 111.375 68.8766 113.043 67.9437C114.73 67.0109 116.03 65.7283 116.945 64.0958C117.878 62.4634 118.344 60.5977 118.344 58.4988V23.706ZM169.477 39.5552C169.262 37.3846 168.338 35.6983 166.706 34.4964C165.073 33.2945 162.858 32.6935 160.059 32.6935C158.158 32.6935 156.552 32.9626 155.243 33.5008C153.933 34.021 152.929 34.7475 152.229 35.6803C151.547 36.6132 151.206 37.6716 151.206 38.8556C151.171 39.8422 151.377 40.7033 151.825 41.4388C152.292 42.1743 152.929 42.8111 153.736 43.3493C154.543 43.8695 155.476 44.327 156.534 44.7216C157.593 45.0984 158.723 45.4213 159.925 45.6903L164.876 46.8743C167.28 47.4125 169.486 48.1301 171.495 49.027C173.505 49.924 175.245 51.0272 176.716 52.3368C178.187 53.6463 179.326 55.1891 180.133 56.965C180.958 58.741 181.38 60.7771 181.398 63.0733C181.38 66.4458 180.519 69.3699 178.815 71.8455C177.128 74.3031 174.689 76.2137 171.495 77.577C168.32 78.9225 164.49 79.5952 160.005 79.5952C155.557 79.5952 151.682 78.9135 148.381 77.5501C145.098 76.1867 142.533 74.1686 140.685 71.4957C138.855 68.8048 137.896 65.4771 137.806 61.5126H149.081C149.206 63.3603 149.735 64.9031 150.668 66.1409C151.619 67.3607 152.884 68.2846 154.462 68.9125C156.059 69.5224 157.862 69.8273 159.871 69.8273C161.844 69.8273 163.557 69.5403 165.01 68.9663C166.481 68.3922 167.621 67.5939 168.428 66.5714C169.235 65.5489 169.639 64.3739 169.639 63.0464C169.639 61.8086 169.271 60.7681 168.536 59.925C167.818 59.0819 166.76 58.3643 165.36 57.7723C163.979 57.1803 162.284 56.6421 160.275 56.1578L154.274 54.6509C149.628 53.5207 145.959 51.7537 143.268 49.3499C140.577 46.9461 139.241 43.7081 139.259 39.6359C139.241 36.2992 140.129 33.3841 141.923 30.8906C143.735 28.3971 146.219 26.4507 149.377 25.0515C152.534 23.6522 156.122 22.9526 160.14 22.9526C164.23 22.9526 167.8 23.6522 170.85 25.0515C173.917 26.4507 176.303 28.3971 178.007 30.8906C179.712 33.3841 180.591 36.2723 180.644 39.5552H169.477ZM189.235 78.8148V23.706H200.886V46.4438H224.539V23.706H236.164V78.8148H224.539V56.0502H200.886V78.8148H189.235Z" fill="white" fill-opacity="0.2"/>
<path d="M22.9802 93.8836H240.98V99.0501H22.9802V93.8836Z" fill="white"/>
<path d="M22.9802 93.8836H240.98V99.0501H22.9802V93.8836Z" fill="white" fill-opacity="0.2"/>
<path d="M411.917 23.706H397.548L382.371 60.7322H381.725L366.549 23.706H352.18V78.8148H363.481V42.9457H363.939L378.2 78.5457H385.896L400.158 42.8111H400.615V78.8148H411.917V23.706ZM342.58 78.8148V23.706H305.446V33.3124H330.929V46.4438H307.357V56.0502H330.929V69.2085H305.339V78.8148H342.58ZM266.288 39.5552C266.503 37.3846 267.427 35.6983 269.059 34.4964C270.692 33.2945 272.907 32.6935 275.706 32.6935C277.607 32.6935 279.213 32.9626 280.522 33.5008C281.832 34.021 282.836 34.7475 283.536 35.6803C284.218 36.6132 284.558 37.6716 284.558 38.8556C284.594 39.8422 284.388 40.7033 283.94 41.4388C283.473 42.1743 282.836 42.8111 282.029 43.3493C281.222 43.8695 280.289 44.327 279.231 44.7216C278.172 45.0984 277.042 45.4213 275.84 45.6903L270.889 46.8743C268.485 47.4125 266.279 48.1301 264.269 49.027C262.26 49.924 260.52 51.0272 259.049 52.3368C257.578 53.6463 256.439 55.1891 255.632 56.965C254.807 58.741 254.385 60.7771 254.367 63.0733C254.385 66.4458 255.246 69.3699 256.95 71.8455C258.637 74.3031 261.076 76.2137 264.269 77.577C267.445 78.9225 271.275 79.5952 275.759 79.5952C280.208 79.5952 284.083 78.9135 287.384 77.5501C290.667 76.1867 293.232 74.1686 295.08 71.4957C296.91 68.8048 297.869 65.4771 297.959 61.5126H286.684C286.559 63.3603 286.029 64.9031 285.097 66.1409C284.146 67.3607 282.881 68.2846 281.303 68.9125C279.706 69.5224 277.903 69.8273 275.894 69.8273C273.921 69.8273 272.207 69.5403 270.754 68.9663C269.283 68.3922 268.144 67.5939 267.337 66.5714C266.53 65.5489 266.126 64.3739 266.126 63.0464C266.126 61.8086 266.494 60.7681 267.229 59.925C267.947 59.0819 269.005 58.3643 270.405 57.7723C271.786 57.1803 273.481 56.6421 275.49 56.1578L281.491 54.6509C286.137 53.5207 289.806 51.7537 292.496 49.3499C295.187 46.9461 296.524 43.7081 296.506 39.6359C296.524 36.2992 295.636 33.3841 293.842 30.8906C292.03 28.3971 289.546 26.4507 286.388 25.0515C283.231 23.6522 279.643 22.9526 275.625 22.9526C271.535 22.9526 267.965 23.6522 264.915 25.0515C261.848 26.4507 259.462 28.3971 257.758 30.8906C256.053 33.3841 255.174 36.2723 255.12 39.5552H266.288ZM246.53 78.8148V23.706H234.878V46.4438H211.226V23.706H199.601V78.8148H211.226V56.0502H234.878V78.8148H246.53Z" fill="white"/>
<path d="M411.917 23.706H397.548L382.371 60.7322H381.725L366.549 23.706H352.18V78.8148H363.481V42.9457H363.939L378.2 78.5457H385.896L400.158 42.8111H400.615V78.8148H411.917V23.706ZM342.58 78.8148V23.706H305.446V33.3124H330.929V46.4438H307.357V56.0502H330.929V69.2085H305.339V78.8148H342.58ZM266.288 39.5552C266.503 37.3846 267.427 35.6983 269.059 34.4964C270.692 33.2945 272.907 32.6935 275.706 32.6935C277.607 32.6935 279.213 32.9626 280.522 33.5008C281.832 34.021 282.836 34.7475 283.536 35.6803C284.218 36.6132 284.558 37.6716 284.558 38.8556C284.594 39.8422 284.388 40.7033 283.94 41.4388C283.473 42.1743 282.836 42.8111 282.029 43.3493C281.222 43.8695 280.289 44.327 279.231 44.7216C278.172 45.0984 277.042 45.4213 275.84 45.6903L270.889 46.8743C268.485 47.4125 266.279 48.1301 264.269 49.027C262.26 49.924 260.52 51.0272 259.049 52.3368C257.578 53.6463 256.439 55.1891 255.632 56.965C254.807 58.741 254.385 60.7771 254.367 63.0733C254.385 66.4458 255.246 69.3699 256.95 71.8455C258.637 74.3031 261.076 76.2137 264.269 77.577C267.445 78.9225 271.275 79.5952 275.759 79.5952C280.208 79.5952 284.083 78.9135 287.384 77.5501C290.667 76.1867 293.232 74.1686 295.08 71.4957C296.91 68.8048 297.869 65.4771 297.959 61.5126H286.684C286.559 63.3603 286.029 64.9031 285.097 66.1409C284.146 67.3607 282.881 68.2846 281.303 68.9125C279.706 69.5224 277.903 69.8273 275.894 69.8273C273.921 69.8273 272.207 69.5403 270.754 68.9663C269.283 68.3922 268.144 67.5939 267.337 66.5714C266.53 65.5489 266.126 64.3739 266.126 63.0464C266.126 61.8086 266.494 60.7681 267.229 59.925C267.947 59.0819 269.005 58.3643 270.405 57.7723C271.786 57.1803 273.481 56.6421 275.49 56.1578L281.491 54.6509C286.137 53.5207 289.806 51.7537 292.496 49.3499C295.187 46.9461 296.524 43.7081 296.506 39.6359C296.524 36.2992 295.636 33.3841 293.842 30.8906C292.03 28.3971 289.546 26.4507 286.388 25.0515C283.231 23.6522 279.643 22.9526 275.625 22.9526C271.535 22.9526 267.965 23.6522 264.915 25.0515C261.848 26.4507 259.462 28.3971 257.758 30.8906C256.053 33.3841 255.174 36.2723 255.12 39.5552H266.288ZM246.53 78.8148V23.706H234.878V46.4438H211.226V23.706H199.601V78.8148H211.226V56.0502H234.878V78.8148H246.53Z" fill="white" fill-opacity="0.2"/>
<path d="M416.707 93.8836H194.785V99.0501H416.707V93.8836Z" fill="white"/>
<path d="M416.707 93.8836H194.785V99.0501H416.707V93.8836Z" fill="white" fill-opacity="0.2"/>
</svg>
