<svg width="286" height="74" viewBox="0 0 286 74" fill="none" xmlns="http://www.w3.org/2000/svg">
<rect width="285.714" height="74" rx="17.1429" fill="black"/>
<path d="M18.1264 51.1428V15.1712H25.7318V30.013H41.1707V15.1712H48.7585V51.1428H41.1707V36.2835H25.7318V51.1428H18.1264ZM77.2477 15.1712H84.853V38.5317C84.853 41.1546 84.2265 43.4497 82.9736 45.4169C81.7324 47.3841 79.9936 48.918 77.757 50.0187C75.5205 51.1077 72.9152 51.6522 69.941 51.6522C66.955 51.6522 64.3438 51.1077 62.1073 50.0187C59.8708 48.918 58.1319 47.3841 56.8907 45.4169C55.6495 43.4497 55.0289 41.1546 55.0289 38.5317V15.1712H62.6342V37.8818C62.6342 39.2518 62.9328 40.4696 63.53 41.5352C64.1389 42.6007 64.9937 43.438 66.0944 44.0469C67.1951 44.6558 68.4773 44.9602 69.941 44.9602C71.4164 44.9602 72.6985 44.6558 73.7875 44.0469C74.8882 43.438 75.7372 42.6007 76.3343 41.5352C76.9432 40.4696 77.2477 39.2518 77.2477 37.8818V15.1712ZM110.624 25.5166C110.484 24.0997 109.881 22.999 108.815 22.2145C107.749 21.43 106.303 21.0377 104.477 21.0377C103.235 21.0377 102.187 21.2133 101.333 21.5646C100.478 21.9042 99.8221 22.3784 99.3655 22.9873C98.9205 23.5962 98.698 24.2871 98.698 25.0599C98.6746 25.7039 98.8093 26.266 99.102 26.7461C99.4064 27.2262 99.8221 27.6419 100.349 27.9931C100.876 28.3327 101.485 28.6313 102.176 28.8889C102.867 29.1348 103.604 29.3456 104.389 29.5212L107.621 30.2941C109.19 30.6453 110.63 31.1137 111.941 31.6992C113.253 32.2847 114.389 33.0048 115.349 33.8596C116.309 34.7144 117.053 35.7214 117.58 36.8807C118.118 38.0399 118.393 39.3689 118.405 40.8677C118.393 43.0691 117.831 44.9778 116.719 46.5937C115.618 48.1979 114.026 49.4449 111.941 50.3349C109.869 51.2131 107.369 51.6522 104.442 51.6522C101.538 51.6522 99.0083 51.2072 96.8538 50.3173C94.7109 49.4274 93.0365 48.1101 91.8304 46.3653C90.636 44.6089 90.0096 42.4368 89.951 39.849H97.3104C97.3924 41.0551 97.7378 42.0621 98.3467 42.8701C98.9673 43.6663 99.7929 44.2693 100.823 44.6792C101.865 45.0773 103.042 45.2764 104.354 45.2764C105.642 45.2764 106.76 45.089 107.708 44.7143C108.669 44.3396 109.412 43.8185 109.939 43.1511C110.466 42.4836 110.73 41.7167 110.73 40.8502C110.73 40.0422 110.489 39.3631 110.009 38.8127C109.541 38.2624 108.85 37.794 107.937 37.4076C107.035 37.0212 105.929 36.6699 104.617 36.3537L100.7 35.3701C97.6676 34.6324 95.273 33.479 93.5166 31.91C91.7601 30.3409 90.8878 28.2273 90.8995 25.5693C90.8878 23.3913 91.4674 21.4885 92.6384 19.8609C93.821 18.2333 95.4428 16.9628 97.5036 16.0495C99.5645 15.1361 101.906 14.6795 104.529 14.6795C107.199 14.6795 109.529 15.1361 111.52 16.0495C113.522 16.9628 115.08 18.2333 116.192 19.8609C117.304 21.4885 117.878 23.3738 117.913 25.5166H110.624ZM123.521 51.1428V15.1712H131.126V30.013H146.565V15.1712H154.153V51.1428H146.565V36.2835H131.126V51.1428H123.521Z" fill="white"/>
<path d="M18.1264 51.1428V15.1712H25.7318V30.013H41.1707V15.1712H48.7585V51.1428H41.1707V36.2835H25.7318V51.1428H18.1264ZM77.2477 15.1712H84.853V38.5317C84.853 41.1546 84.2265 43.4497 82.9736 45.4169C81.7324 47.3841 79.9936 48.918 77.757 50.0187C75.5205 51.1077 72.9152 51.6522 69.941 51.6522C66.955 51.6522 64.3438 51.1077 62.1073 50.0187C59.8708 48.918 58.1319 47.3841 56.8907 45.4169C55.6495 43.4497 55.0289 41.1546 55.0289 38.5317V15.1712H62.6342V37.8818C62.6342 39.2518 62.9328 40.4696 63.53 41.5352C64.1389 42.6007 64.9937 43.438 66.0944 44.0469C67.1951 44.6558 68.4773 44.9602 69.941 44.9602C71.4164 44.9602 72.6985 44.6558 73.7875 44.0469C74.8882 43.438 75.7372 42.6007 76.3343 41.5352C76.9432 40.4696 77.2477 39.2518 77.2477 37.8818V15.1712ZM110.624 25.5166C110.484 24.0997 109.881 22.999 108.815 22.2145C107.749 21.43 106.303 21.0377 104.477 21.0377C103.235 21.0377 102.187 21.2133 101.333 21.5646C100.478 21.9042 99.8221 22.3784 99.3655 22.9873C98.9205 23.5962 98.698 24.2871 98.698 25.0599C98.6746 25.7039 98.8093 26.266 99.102 26.7461C99.4064 27.2262 99.8221 27.6419 100.349 27.9931C100.876 28.3327 101.485 28.6313 102.176 28.8889C102.867 29.1348 103.604 29.3456 104.389 29.5212L107.621 30.2941C109.19 30.6453 110.63 31.1137 111.941 31.6992C113.253 32.2847 114.389 33.0048 115.349 33.8596C116.309 34.7144 117.053 35.7214 117.58 36.8807C118.118 38.0399 118.393 39.3689 118.405 40.8677C118.393 43.0691 117.831 44.9778 116.719 46.5937C115.618 48.1979 114.026 49.4449 111.941 50.3349C109.869 51.2131 107.369 51.6522 104.442 51.6522C101.538 51.6522 99.0083 51.2072 96.8538 50.3173C94.7109 49.4274 93.0365 48.1101 91.8304 46.3653C90.636 44.6089 90.0096 42.4368 89.951 39.849H97.3104C97.3924 41.0551 97.7378 42.0621 98.3467 42.8701C98.9673 43.6663 99.7929 44.2693 100.823 44.6792C101.865 45.0773 103.042 45.2764 104.354 45.2764C105.642 45.2764 106.76 45.089 107.708 44.7143C108.669 44.3396 109.412 43.8185 109.939 43.1511C110.466 42.4836 110.73 41.7167 110.73 40.8502C110.73 40.0422 110.489 39.3631 110.009 38.8127C109.541 38.2624 108.85 37.794 107.937 37.4076C107.035 37.0212 105.929 36.6699 104.617 36.3537L100.7 35.3701C97.6676 34.6324 95.273 33.479 93.5166 31.91C91.7601 30.3409 90.8878 28.2273 90.8995 25.5693C90.8878 23.3913 91.4674 21.4885 92.6384 19.8609C93.821 18.2333 95.4428 16.9628 97.5036 16.0495C99.5645 15.1361 101.906 14.6795 104.529 14.6795C107.199 14.6795 109.529 15.1361 111.52 16.0495C113.522 16.9628 115.08 18.2333 116.192 19.8609C117.304 21.4885 117.878 23.3738 117.913 25.5166H110.624ZM123.521 51.1428V15.1712H131.126V30.013H146.565V15.1712H154.153V51.1428H146.565V36.2835H131.126V51.1428H123.521Z" fill="white" fill-opacity="0.2"/>
<path d="M15 60.9788H157.297V64.3511H15V60.9788Z" fill="white"/>
<path d="M15 60.9788H157.297V64.3511H15V60.9788Z" fill="white" fill-opacity="0.2"/>
<path d="M268.874 15.1712H259.494L249.588 39.3396H249.166L239.26 15.1712H229.881V51.1428H237.258V27.7297H237.557L246.866 50.9672H251.889L261.198 27.6419H261.497V51.1428H268.874V15.1712ZM223.615 51.1428V15.1712H199.376V21.4417H216.01V30.013H200.623V36.2835H216.01V44.8724H199.306V51.1428H223.615ZM173.816 25.5166C173.956 24.0997 174.559 22.999 175.625 22.2145C176.691 21.43 178.137 21.0377 179.963 21.0377C181.205 21.0377 182.253 21.2133 183.107 21.5646C183.962 21.9042 184.618 22.3784 185.075 22.9873C185.52 23.5962 185.742 24.2871 185.742 25.0599C185.765 25.7039 185.631 26.266 185.338 26.7461C185.034 27.2262 184.618 27.6419 184.091 27.9931C183.564 28.3327 182.955 28.6313 182.264 28.8889C181.573 29.1348 180.836 29.3456 180.051 29.5212L176.819 30.2941C175.25 30.6453 173.81 31.1137 172.499 31.6992C171.187 32.2847 170.051 33.0048 169.091 33.8596C168.131 34.7144 167.387 35.7214 166.86 36.8807C166.322 38.0399 166.047 39.3689 166.035 40.8677C166.047 43.0691 166.609 44.9778 167.721 46.5937C168.822 48.1979 170.414 49.4449 172.499 50.3349C174.571 51.2131 177.071 51.6522 179.998 51.6522C182.902 51.6522 185.432 51.2072 187.586 50.3173C189.729 49.4274 191.404 48.1101 192.61 46.3653C193.804 44.6089 194.43 42.4368 194.489 39.849H187.13C187.048 41.0551 186.702 42.0621 186.093 42.8701C185.473 43.6663 184.647 44.2693 183.617 44.6792C182.575 45.0773 181.398 45.2764 180.086 45.2764C178.798 45.2764 177.68 45.089 176.732 44.7143C175.771 44.3396 175.028 43.8185 174.501 43.1511C173.974 42.4836 173.71 41.7167 173.71 40.8502C173.71 40.0422 173.951 39.3631 174.431 38.8127C174.899 38.2624 175.59 37.794 176.503 37.4076C177.405 37.0212 178.511 36.6699 179.823 36.3537L183.74 35.3701C186.772 34.6324 189.167 33.479 190.923 31.91C192.68 30.3409 193.552 28.2273 193.541 25.5693C193.552 23.3913 192.973 21.4885 191.802 19.8609C190.619 18.2333 188.997 16.9628 186.936 16.0495C184.875 15.1361 182.534 14.6795 179.911 14.6795C177.241 14.6795 174.911 15.1361 172.92 16.0495C170.918 16.9628 169.36 18.2333 168.248 19.8609C167.136 21.4885 166.562 23.3738 166.527 25.5166H173.816ZM160.919 51.1428V15.1712H153.314V30.013H137.875V15.1712H130.287V51.1428H137.875V36.2835H153.314V51.1428H160.919Z" fill="white"/>
<path d="M268.874 15.1712H259.494L249.588 39.3396H249.166L239.26 15.1712H229.881V51.1428H237.258V27.7297H237.557L246.866 50.9672H251.889L261.198 27.6419H261.497V51.1428H268.874V15.1712ZM223.615 51.1428V15.1712H199.376V21.4417H216.01V30.013H200.623V36.2835H216.01V44.8724H199.306V51.1428H223.615ZM173.816 25.5166C173.956 24.0997 174.559 22.999 175.625 22.2145C176.691 21.43 178.137 21.0377 179.963 21.0377C181.205 21.0377 182.253 21.2133 183.107 21.5646C183.962 21.9042 184.618 22.3784 185.075 22.9873C185.52 23.5962 185.742 24.2871 185.742 25.0599C185.765 25.7039 185.631 26.266 185.338 26.7461C185.034 27.2262 184.618 27.6419 184.091 27.9931C183.564 28.3327 182.955 28.6313 182.264 28.8889C181.573 29.1348 180.836 29.3456 180.051 29.5212L176.819 30.2941C175.25 30.6453 173.81 31.1137 172.499 31.6992C171.187 32.2847 170.051 33.0048 169.091 33.8596C168.131 34.7144 167.387 35.7214 166.86 36.8807C166.322 38.0399 166.047 39.3689 166.035 40.8677C166.047 43.0691 166.609 44.9778 167.721 46.5937C168.822 48.1979 170.414 49.4449 172.499 50.3349C174.571 51.2131 177.071 51.6522 179.998 51.6522C182.902 51.6522 185.432 51.2072 187.586 50.3173C189.729 49.4274 191.404 48.1101 192.61 46.3653C193.804 44.6089 194.43 42.4368 194.489 39.849H187.13C187.048 41.0551 186.702 42.0621 186.093 42.8701C185.473 43.6663 184.647 44.2693 183.617 44.6792C182.575 45.0773 181.398 45.2764 180.086 45.2764C178.798 45.2764 177.68 45.089 176.732 44.7143C175.771 44.3396 175.028 43.8185 174.501 43.1511C173.974 42.4836 173.71 41.7167 173.71 40.8502C173.71 40.0422 173.951 39.3631 174.431 38.8127C174.899 38.2624 175.59 37.794 176.503 37.4076C177.405 37.0212 178.511 36.6699 179.823 36.3537L183.74 35.3701C186.772 34.6324 189.167 33.479 190.923 31.91C192.68 30.3409 193.552 28.2273 193.541 25.5693C193.552 23.3913 192.973 21.4885 191.802 19.8609C190.619 18.2333 188.997 16.9628 186.936 16.0495C184.875 15.1361 182.534 14.6795 179.911 14.6795C177.241 14.6795 174.911 15.1361 172.92 16.0495C170.918 16.9628 169.36 18.2333 168.248 19.8609C167.136 21.4885 166.562 23.3738 166.527 25.5166H173.816ZM160.919 51.1428V15.1712H153.314V30.013H137.875V15.1712H130.287V51.1428H137.875V36.2835H153.314V51.1428H160.919Z" fill="white" fill-opacity="0.2"/>
<path d="M272 60.9788H127.143V64.3511H272V60.9788Z" fill="white"/>
<path d="M272 60.9788H127.143V64.3511H272V60.9788Z" fill="white" fill-opacity="0.2"/>
</svg>
