<svg width="108" height="108" viewBox="0 0 108 108" fill="none" xmlns="http://www.w3.org/2000/svg">
<g filter="url(#filter0_di_11_82)">
<g filter="url(#filter1_d_11_82)">
<rect x="4" width="100" height="100" rx="26.4" fill="black"/>
</g>
<line x1="22.2415" y1="33.9996" x2="61.8666" y2="81.5635" stroke="white" stroke-width="10"/>
<path d="M72.8363 95.0867C73.0563 95.1068 73.2509 94.9446 73.2709 94.7246L73.5972 91.1394C73.6172 90.9194 73.4551 90.7249 73.2351 90.7048C73.0151 90.6848 72.8205 90.8469 72.8005 91.0669L72.5105 94.2538L69.3236 93.9637C69.1036 93.9437 68.9091 94.1058 68.889 94.3258C68.869 94.5459 69.0311 94.7404 69.2511 94.7605L72.8363 95.0867ZM62.7273 82.5116L62.42 82.7677L72.5653 94.9444L72.8726 94.6884L73.1799 94.4323L63.0346 82.2556L62.7273 82.5116Z" fill="white"/>
<rect x="79.7666" y="9.61008" width="8.35914" height="8.35914" transform="rotate(43.5239 79.7666 9.61008)" fill="white"/>
<rect x="49.3567" y="39.6" width="8.35914" height="8.35914" transform="rotate(43.5239 49.3567 39.6)" fill="white"/>
<path d="M55.2002 39.6C55.2002 39.8209 55.3793 40 55.6002 40L59.2002 40C59.4211 40 59.6002 39.8209 59.6002 39.6C59.6002 39.3791 59.4211 39.2 59.2002 39.2L56.0002 39.2L56.0002 36C56.0002 35.7791 55.8211 35.6 55.6002 35.6C55.3793 35.6 55.2002 35.7791 55.2002 36L55.2002 39.6ZM75.2002 20L74.9174 19.7172L55.3174 39.3172L55.6002 39.6L55.883 39.8828L75.483 20.2828L75.2002 20Z" fill="white"/>
</g>
<defs>
<filter id="filter0_di_11_82" x="0" y="0" width="108" height="108" filterUnits="userSpaceOnUse" color-interpolation-filters="sRGB">
<feFlood flood-opacity="0" result="BackgroundImageFix"/>
<feColorMatrix in="SourceAlpha" type="matrix" values="0 0 0 0 0 0 0 0 0 0 0 0 0 0 0 0 0 0 127 0" result="hardAlpha"/>
<feOffset dy="4"/>
<feGaussianBlur stdDeviation="2"/>
<feComposite in2="hardAlpha" operator="out"/>
<feColorMatrix type="matrix" values="0 0 0 0 0 0 0 0 0 0 0 0 0 0 0 0 0 0 0.25 0"/>
<feBlend mode="normal" in2="BackgroundImageFix" result="effect1_dropShadow_11_82"/>
<feBlend mode="normal" in="SourceGraphic" in2="effect1_dropShadow_11_82" result="shape"/>
<feColorMatrix in="SourceAlpha" type="matrix" values="0 0 0 0 0 0 0 0 0 0 0 0 0 0 0 0 0 0 127 0" result="hardAlpha"/>
<feOffset dy="4"/>
<feGaussianBlur stdDeviation="2"/>
<feComposite in2="hardAlpha" operator="arithmetic" k2="-1" k3="1"/>
<feColorMatrix type="matrix" values="0 0 0 0 0 0 0 0 0 0 0 0 0 0 0 0 0 0 0.25 0"/>
<feBlend mode="normal" in2="shape" result="effect2_innerShadow_11_82"/>
</filter>
<filter id="filter1_d_11_82" x="2.4" y="0" width="103.2" height="103.2" filterUnits="userSpaceOnUse" color-interpolation-filters="sRGB">
<feFlood flood-opacity="0" result="BackgroundImageFix"/>
<feColorMatrix in="SourceAlpha" type="matrix" values="0 0 0 0 0 0 0 0 0 0 0 0 0 0 0 0 0 0 127 0" result="hardAlpha"/>
<feOffset dy="1.6"/>
<feGaussianBlur stdDeviation="0.8"/>
<feComposite in2="hardAlpha" operator="out"/>
<feColorMatrix type="matrix" values="0 0 0 0 0 0 0 0 0 0 0 0 0 0 0 0 0 0 0.25 0"/>
<feBlend mode="normal" in2="BackgroundImageFix" result="effect1_dropShadow_11_82"/>
<feBlend mode="normal" in="SourceGraphic" in2="effect1_dropShadow_11_82" result="shape"/>
</filter>
</defs>
</svg>
