<svg width="253" height="299" viewBox="0 0 253 299" fill="none" xmlns="http://www.w3.org/2000/svg">
<rect y="46" width="253" height="253" rx="66" fill="#4255FF"/>
<mask id="mask0_37_1502" style="mask-type:alpha" maskUnits="userSpaceOnUse" x="0" y="46" width="253" height="253">
<path d="M0 112C0 75.5492 29.5492 46 66 46H187C223.451 46 253 75.5492 253 112V233C253 269.451 223.451 299 187 299H66C29.5492 299 0 269.451 0 233V112Z" fill="#4255FF"/>
</mask>
<g mask="url(#mask0_37_1502)">
<path d="M-59 230C-59 229.448 -58.5523 229 -58 229H285C285.552 229 286 229.448 286 230V298C286 298.552 285.552 299 285 299H-58C-58.5523 299 -59 298.552 -59 298V230Z" fill="white"/>
</g>
<mask id="mask1_37_1502" style="mask-type:alpha" maskUnits="userSpaceOnUse" x="0" y="46" width="253" height="253">
<path d="M0 112C0 75.5492 29.5492 46 66 46H187C223.451 46 253 75.5492 253 112V233C253 269.451 223.451 299 187 299H66C29.5492 299 0 269.451 0 233V112Z" fill="#4255FF"/>
</mask>
<g mask="url(#mask1_37_1502)">
<path d="M-59 230C-59 229.448 -58.5523 229 -58 229H285C285.552 229 286 229.448 286 230V298C286 298.552 285.552 299 285 299H-58C-58.5523 299 -59 298.552 -59 298V230Z" fill="white"/>
</g>
<path d="M115.82 159.884L145.457 151.943L159.762 162.522L183.387 178.25L214.634 200.465L180.881 209.509L158.921 194.511L143.332 181.335L115.82 159.884ZM192.742 119.862C196.933 135.503 197.427 149.513 194.224 161.89C191.009 174.222 184.975 184.54 176.121 192.843C167.256 201.101 156.466 206.933 143.751 210.34C130.946 213.771 118.633 214.105 106.814 211.341C95.0288 208.518 84.6609 202.571 75.7105 193.499C66.7936 184.369 60.2519 172.029 56.0853 156.479C51.8942 140.837 51.3833 126.857 54.5528 114.537C57.7557 102.159 63.7671 91.8479 72.5869 83.6024C81.4402 75.2988 92.2698 69.4314 105.076 66.0001C117.79 62.5933 130.057 62.2721 141.876 65.0365C153.682 67.7551 164.067 73.6734 173.03 82.7913C181.98 91.8634 188.551 104.22 192.742 119.862ZM153.501 130.376C151.246 121.961 148.226 115.172 144.441 110.01C140.689 104.79 136.243 101.276 131.102 99.467C125.994 97.6004 120.284 97.5127 113.973 99.2038C107.661 100.895 102.737 103.832 99.2014 108.015C95.6988 112.139 93.6052 117.406 92.9205 123.815C92.2693 130.166 93.0712 137.549 95.326 145.964C97.5809 154.379 100.584 161.197 104.336 166.417C108.121 171.579 112.567 175.094 117.675 176.96C122.817 178.769 128.543 178.828 134.855 177.136C141.166 175.445 146.073 172.537 149.576 168.413C153.112 164.23 155.205 158.963 155.856 152.612C156.541 146.203 155.756 138.791 153.501 130.376Z" fill="white"/>
<path d="M53.5156 290V235.455H68.3239V278.068H90.3764V290H53.5156ZM107.421 235.455V290H92.6123V235.455H107.421ZM109.197 247.386V235.455H156.605V247.386H140.198V290H125.603V247.386H109.197ZM158.428 290V235.455H197.739V247.386H173.236V256.761H195.715V268.693H173.236V278.068H197.632V290H158.428Z" fill="black"/>
<mask id="mask2_37_1502" style="mask-type:alpha" maskUnits="userSpaceOnUse" x="0" y="46" width="253" height="253">
<path d="M0 112C0 75.5492 29.5492 46 66 46H187C223.451 46 253 75.5492 253 112V233C253 269.451 223.451 299 187 299H66C29.5492 299 0 269.451 0 233V112Z" fill="#4255FF"/>
</mask>
<g mask="url(#mask2_37_1502)">
<path d="M-59 230C-59 229.448 -58.5523 229 -58 229H285C285.552 229 286 229.448 286 230V298C286 298.552 285.552 299 285 299H-58C-58.5523 299 -59 298.552 -59 298V230Z" fill="white"/>
</g>
<path d="M115.82 159.884L145.457 151.943L159.762 162.522L183.387 178.25L214.634 200.465L180.881 209.509L158.921 194.511L143.332 181.335L115.82 159.884ZM192.742 119.862C196.933 135.503 197.427 149.513 194.224 161.89C191.009 174.222 184.975 184.54 176.121 192.843C167.256 201.101 156.466 206.933 143.751 210.34C130.946 213.771 118.633 214.105 106.814 211.341C95.0288 208.518 84.6609 202.571 75.7105 193.499C66.7936 184.369 60.2519 172.029 56.0853 156.479C51.8942 140.837 51.3833 126.857 54.5528 114.537C57.7557 102.159 63.7671 91.8479 72.5869 83.6024C81.4402 75.2988 92.2698 69.4314 105.076 66.0001C117.79 62.5933 130.057 62.2721 141.876 65.0365C153.682 67.7551 164.067 73.6734 173.03 82.7913C181.98 91.8634 188.551 104.22 192.742 119.862ZM153.501 130.376C151.246 121.961 148.226 115.172 144.441 110.01C140.689 104.79 136.243 101.276 131.102 99.467C125.994 97.6004 120.284 97.5127 113.973 99.2038C107.661 100.895 102.737 103.832 99.2014 108.015C95.6988 112.139 93.6052 117.406 92.9205 123.815C92.2693 130.166 93.0712 137.549 95.326 145.964C97.5809 154.379 100.584 161.197 104.336 166.417C108.121 171.579 112.567 175.094 117.675 176.96C122.817 178.769 128.543 178.828 134.855 177.136C141.166 175.445 146.073 172.537 149.576 168.413C153.112 164.23 155.205 158.963 155.856 152.612C156.541 146.203 155.756 138.791 153.501 130.376Z" fill="white"/>
<path d="M53.5156 290V235.455H68.3239V278.068H90.3764V290H53.5156ZM107.421 235.455V290H92.6123V235.455H107.421ZM109.197 247.386V235.455H156.605V247.386H140.198V290H125.603V247.386H109.197ZM158.428 290V235.455H197.739V247.386H173.236V256.761H195.715V268.693H173.236V278.068H197.632V290H158.428Z" fill="black"/>
</svg>
