<svg width="258" height="258" viewBox="0 0 258 258" fill="none" xmlns="http://www.w3.org/2000/svg">
<g filter="url(#filter0_d_42_1513)">
<rect x="4" width="250" height="250" rx="66" fill="#344E41"/>
<path d="M132.105 206.142C132.105 212.901 137.572 218.379 144.316 218.379C151.06 218.379 156.527 212.901 156.527 206.142H132.105ZM152.95 62.8729C148.182 58.0937 140.45 58.0937 135.682 62.8729L57.9717 140.754C53.2031 145.533 53.2031 153.281 57.9717 158.061C62.7405 162.84 70.4719 162.84 75.2407 158.061L144.316 88.8331L213.392 158.061C218.161 162.84 225.891 162.84 230.661 158.061C235.429 153.281 235.429 145.533 230.661 140.754L152.95 62.8729ZM156.527 206.142V71.5262H132.105V206.142H156.527Z" fill="#DAD7CD"/>
<mask id="path-3-inside-1_42_1513" fill="white">
<path d="M34.0881 165.001C29.3522 169.772 29.3522 177.508 34.0881 182.279C38.8241 187.049 46.5026 187.049 51.2386 182.279L34.0881 165.001ZM156.174 71.5055C156.174 64.7583 150.745 59.2885 144.047 59.2885H34.9019C28.2042 59.2885 22.7747 64.7583 22.7747 71.5055C22.7747 78.2529 28.2042 83.7226 34.9019 83.7226H131.92V181.459C131.92 188.206 137.349 193.676 144.047 193.676C150.745 193.676 156.174 188.206 156.174 181.459V71.5055ZM51.2386 182.279L152.622 80.1443L135.472 62.8669L34.0881 165.001L51.2386 182.279Z"/>
</mask>
<path d="M34.0881 165.001C29.3522 169.772 29.3522 177.508 34.0881 182.279C38.8241 187.049 46.5026 187.049 51.2386 182.279L34.0881 165.001ZM156.174 71.5055C156.174 64.7583 150.745 59.2885 144.047 59.2885H34.9019C28.2042 59.2885 22.7747 64.7583 22.7747 71.5055C22.7747 78.2529 28.2042 83.7226 34.9019 83.7226H131.92V181.459C131.92 188.206 137.349 193.676 144.047 193.676C150.745 193.676 156.174 188.206 156.174 181.459V71.5055ZM51.2386 182.279L152.622 80.1443L135.472 62.8669L34.0881 165.001L51.2386 182.279Z" fill="#DAD7CD"/>
<path d="M86.7239 147.054L69.5734 129.776L-1.39726 200.226L15.7533 217.503L86.7239 147.054ZM34.0881 165.001L105.057 235.452L105.059 235.451L34.0881 165.001ZM34.0881 182.279L-36.8812 252.73L-36.8803 252.731L34.0881 182.279ZM51.2386 182.279L122.207 252.731L122.21 252.728L51.2386 182.279ZM131.92 83.7226H231.92V-16.2774H131.92V83.7226ZM152.622 80.1443L223.593 150.594L293.524 80.1446L223.593 9.6953L152.622 80.1443ZM135.472 62.8669L206.443 -7.58214L135.472 -79.0794L64.5005 -7.58244L135.472 62.8669ZM-36.8812 94.5502C-80.3247 138.313 -80.3247 208.967 -36.8812 252.73L105.057 111.828C139.029 146.049 139.029 201.231 105.057 235.452L-36.8812 94.5502ZM-36.8803 252.731C6.96634 296.899 78.3603 296.899 122.207 252.731L-19.7298 111.827C14.6448 77.2 70.6819 77.2 105.056 111.827L-36.8803 252.731ZM256.174 71.5055C256.174 10.2282 206.669 -40.7115 144.047 -40.7115V159.289C94.8203 159.289 56.1739 119.288 56.1739 71.5055H256.174ZM144.047 -40.7115H34.9019V159.289H144.047V-40.7115ZM34.9019 -40.7115C-27.7194 -40.7115 -77.2253 10.2276 -77.2253 71.5055H122.775C122.775 119.289 84.1278 159.289 34.9019 159.289V-40.7115ZM-77.2253 71.5055C-77.2253 132.784 -27.7188 183.723 34.9019 183.723V-16.2774C84.1272 -16.2774 122.775 23.7215 122.775 71.5055H-77.2253ZM34.9019 183.723H131.92V-16.2774H34.9019V183.723ZM31.9195 83.7226V181.459H231.92V83.7226H31.9195ZM31.9195 181.459C31.9195 242.738 81.4259 293.676 144.047 293.676V93.6759C193.272 93.6759 231.92 133.675 231.92 181.459H31.9195ZM144.047 293.676C206.668 293.676 256.174 242.738 256.174 181.459H56.1739C56.1739 133.675 94.8216 93.6759 144.047 93.6759V293.676ZM256.174 181.459V71.5055H56.1739V181.459H256.174ZM122.21 252.728L223.593 150.594L81.6508 9.69506L-19.7325 111.829L122.21 252.728ZM223.593 9.6953L206.443 -7.58214L64.5002 133.316L81.6505 150.593L223.593 9.6953ZM64.5005 -7.58244L-36.883 94.5519L105.059 235.451L206.443 133.316L64.5005 -7.58244Z" fill="#DAD7CD" mask="url(#path-3-inside-1_42_1513)"/>
</g>
<defs>
<filter id="filter0_d_42_1513" x="0" y="0" width="258" height="258" filterUnits="userSpaceOnUse" color-interpolation-filters="sRGB">
<feFlood flood-opacity="0" result="BackgroundImageFix"/>
<feColorMatrix in="SourceAlpha" type="matrix" values="0 0 0 0 0 0 0 0 0 0 0 0 0 0 0 0 0 0 127 0" result="hardAlpha"/>
<feOffset dy="4"/>
<feGaussianBlur stdDeviation="2"/>
<feComposite in2="hardAlpha" operator="out"/>
<feColorMatrix type="matrix" values="0 0 0 0 0 0 0 0 0 0 0 0 0 0 0 0 0 0 0.25 0"/>
<feBlend mode="normal" in2="BackgroundImageFix" result="effect1_dropShadow_42_1513"/>
<feBlend mode="normal" in="SourceGraphic" in2="effect1_dropShadow_42_1513" result="shape"/>
</filter>
</defs>
</svg>
