<svg width="1000" height="1000" viewBox="0 0 447 211" fill="none" xmlns="http://www.w3.org/2000/svg">
<path d="M441.27 155.556L391.534 205.291H5.29102V55.0265L55.0265 5.29102H441.27V155.556Z" fill="#BF9001"/>
<path d="M391.534 205.291L441.27 155.556V5.29102M391.534 205.291V55.0265M391.534 205.291H5.29102V55.0265M441.27 5.29102C424.691 20.8113 391.534 52.4868 391.534 55.0265M441.27 5.29102H55.0265L5.29102 55.0265M391.534 55.0265H5.29102" stroke="black" stroke-width="10.582"/>
<path d="M7.40735 56.0847H391.534V204.233H7.40735V56.0847Z" fill="#BF9001" stroke="black" stroke-width="10.582"/>
<path d="M93.5448 89.342V81.3785H125.186V89.342H114.236V117.783H104.495V89.342H93.5448ZM138.148 117.783L127.412 81.3785H138.433L143.41 103.776H143.694L149.596 81.3785H158.27L164.172 103.847H164.456L169.434 81.3785H180.455L169.718 117.783H160.261L154.075 97.4477H153.791L147.605 117.783H138.148ZM216.624 99.5808C216.624 103.634 215.836 107.053 214.259 109.837C212.683 112.61 210.556 114.714 207.878 116.148C205.2 117.57 202.213 118.281 198.919 118.281C195.601 118.281 192.603 117.564 189.925 116.13C187.258 114.684 185.137 112.575 183.561 109.802C181.997 107.017 181.214 103.61 181.214 99.5808C181.214 95.5279 181.997 92.115 183.561 89.342C185.137 86.5572 187.258 84.4537 189.925 83.0317C192.603 81.5977 195.601 80.8808 198.919 80.8808C202.213 80.8808 205.2 81.5977 207.878 83.0317C210.556 84.4537 212.683 86.5572 214.259 89.342C215.836 92.115 216.624 95.5279 216.624 99.5808ZM206.456 99.5808C206.456 97.4003 206.166 95.5635 205.585 94.0703C205.016 92.5653 204.169 91.4277 203.043 90.6574C201.929 89.8753 200.554 89.4842 198.919 89.4842C197.284 89.4842 195.903 89.8753 194.777 90.6574C193.663 91.4277 192.816 92.5653 192.235 94.0703C191.667 95.5635 191.382 97.4003 191.382 99.5808C191.382 101.761 191.667 103.604 192.235 105.109C192.816 106.602 193.663 107.74 194.777 108.522C195.903 109.292 197.284 109.677 198.919 109.677C200.554 109.677 201.929 109.292 203.043 108.522C204.169 107.74 205.016 106.602 205.585 105.109C206.166 103.604 206.456 101.761 206.456 99.5808ZM240.821 92.7549C240.726 91.5699 240.281 90.6456 239.488 89.9819C238.705 89.3183 237.514 88.9865 235.915 88.9865C234.895 88.9865 234.06 89.1109 233.408 89.3598C232.768 89.5968 232.294 89.9227 231.986 90.3375C231.678 90.7522 231.518 91.2262 231.506 91.7595C231.483 92.198 231.56 92.595 231.737 92.9505C231.927 93.2941 232.223 93.6082 232.626 93.8926C233.029 94.1651 233.545 94.414 234.173 94.6392C234.801 94.8643 235.547 95.0658 236.412 95.2435L239.399 95.8835C241.413 96.3101 243.137 96.873 244.571 97.5721C246.005 98.2713 247.178 99.0949 248.091 100.043C249.003 100.979 249.673 102.034 250.1 103.207C250.538 104.38 250.763 105.66 250.775 107.047C250.763 109.44 250.165 111.467 248.98 113.126C247.795 114.785 246.1 116.047 243.896 116.912C241.704 117.777 239.067 118.21 235.986 118.21C232.822 118.21 230.06 117.742 227.702 116.805C225.356 115.869 223.531 114.429 222.227 112.486C220.936 110.531 220.284 108.03 220.272 104.985H229.658C229.717 106.099 229.995 107.035 230.493 107.793C230.991 108.552 231.69 109.126 232.591 109.517C233.503 109.908 234.587 110.104 235.843 110.104C236.898 110.104 237.781 109.974 238.492 109.713C239.203 109.452 239.742 109.091 240.11 108.629C240.477 108.166 240.667 107.639 240.678 107.047C240.667 106.49 240.483 106.004 240.127 105.589C239.784 105.162 239.215 104.783 238.421 104.451C237.627 104.108 236.555 103.788 235.204 103.491L231.577 102.709C228.354 102.01 225.812 100.843 223.952 99.2075C222.103 97.5603 221.184 95.3146 221.196 92.4705C221.184 90.1597 221.801 88.1392 223.045 86.409C224.301 84.667 226.037 83.3101 228.253 82.3384C230.481 81.3667 233.035 80.8808 235.915 80.8808C238.854 80.8808 241.395 81.3726 243.54 82.3562C245.685 83.3398 247.338 84.7263 248.5 86.5157C249.673 88.2933 250.265 90.373 250.277 92.7549H240.821ZM264.418 81.3785V117.783H254.535V81.3785H264.418ZM279.696 81.3785L285.669 91.9728H285.953L291.997 81.3785H303.018L292.139 99.5808L303.444 117.783H292.139L285.953 106.975H285.669L279.483 117.783H268.249L279.412 99.5808L268.604 81.3785H279.696ZM118.102 178.783V142.379H127.985V156.599H141.068V142.379H150.951V178.783H141.068V164.563H127.985V178.783H118.102ZM168.869 179.281C165.954 179.281 163.442 178.724 161.332 177.61C159.235 176.484 157.617 174.872 156.48 172.775C155.354 170.666 154.791 168.141 154.791 165.202C154.791 162.382 155.36 159.917 156.497 157.808C157.635 155.698 159.241 154.057 161.315 152.884C163.388 151.711 165.836 151.124 168.656 151.124C170.718 151.124 172.584 151.444 174.255 152.084C175.926 152.724 177.354 153.654 178.539 154.875C179.724 156.084 180.637 157.553 181.277 159.283C181.917 161.013 182.237 162.963 182.237 165.131V167.407H157.848V162.003H173.206C173.195 161.221 172.993 160.533 172.602 159.941C172.223 159.337 171.707 158.868 171.056 158.537C170.416 158.193 169.687 158.021 168.869 158.021C168.075 158.021 167.346 158.193 166.683 158.537C166.019 158.868 165.486 159.331 165.083 159.923C164.692 160.516 164.485 161.209 164.461 162.003V167.833C164.461 168.71 164.645 169.492 165.012 170.18C165.379 170.867 165.907 171.406 166.594 171.797C167.281 172.188 168.111 172.384 169.083 172.384C169.758 172.384 170.374 172.289 170.931 172.099C171.5 171.91 171.986 171.637 172.389 171.282C172.792 170.914 173.088 170.476 173.278 169.966H182.237C181.928 171.862 181.2 173.51 180.05 174.908C178.901 176.294 177.378 177.373 175.482 178.143C173.598 178.902 171.393 179.281 168.869 179.281ZM193.848 179.21C192.106 179.21 190.566 178.925 189.227 178.356C187.9 177.776 186.857 176.899 186.098 175.726C185.34 174.552 184.961 173.059 184.961 171.246C184.961 169.753 185.215 168.479 185.725 167.424C186.235 166.358 186.946 165.487 187.858 164.811C188.771 164.136 189.831 163.62 191.04 163.265C192.261 162.909 193.576 162.678 194.986 162.572C196.515 162.453 197.741 162.311 198.666 162.145C199.602 161.967 200.277 161.724 200.692 161.416C201.107 161.096 201.314 160.676 201.314 160.154V160.083C201.314 159.372 201.042 158.827 200.497 158.448C199.951 158.069 199.252 157.879 198.399 157.879C197.463 157.879 196.699 158.086 196.106 158.501C195.525 158.904 195.176 159.526 195.057 160.367H186.027C186.146 158.708 186.673 157.18 187.609 155.781C188.557 154.371 189.938 153.245 191.751 152.404C193.564 151.551 195.828 151.124 198.541 151.124C200.497 151.124 202.25 151.355 203.803 151.817C205.355 152.268 206.677 152.902 207.767 153.719C208.857 154.525 209.687 155.473 210.255 156.563C210.836 157.642 211.126 158.815 211.126 160.083V178.783H201.954V174.944H201.741C201.196 175.963 200.532 176.786 199.75 177.414C198.98 178.042 198.097 178.499 197.101 178.783C196.118 179.067 195.034 179.21 193.848 179.21ZM197.048 173.024C197.795 173.024 198.494 172.87 199.146 172.562C199.809 172.253 200.348 171.809 200.763 171.228C201.178 170.648 201.385 169.943 201.385 169.113V166.838C201.125 166.944 200.846 167.045 200.55 167.14C200.266 167.235 199.957 167.324 199.626 167.407C199.306 167.49 198.962 167.567 198.595 167.638C198.239 167.709 197.866 167.774 197.475 167.833C196.716 167.952 196.094 168.147 195.608 168.42C195.134 168.681 194.779 169.006 194.542 169.398C194.317 169.777 194.204 170.203 194.204 170.677C194.204 171.436 194.471 172.016 195.004 172.419C195.537 172.822 196.219 173.024 197.048 173.024ZM225.627 142.379V178.783H215.815V142.379H225.627ZM246.909 151.48V158.59H228.92V151.48H246.909ZM232.404 144.938H242.216V170.002C242.216 170.381 242.281 170.701 242.412 170.962C242.542 171.211 242.743 171.4 243.016 171.531C243.289 171.649 243.638 171.708 244.065 171.708C244.361 171.708 244.705 171.673 245.096 171.602C245.499 171.531 245.795 171.471 245.985 171.424L247.407 178.321C246.968 178.451 246.34 178.611 245.522 178.801C244.717 178.99 243.757 179.115 242.643 179.174C240.391 179.293 238.501 179.062 236.972 178.481C235.444 177.888 234.294 176.958 233.524 175.69C232.753 174.422 232.38 172.834 232.404 170.926V144.938ZM261.312 163.425V178.783H251.499V142.379H260.956V156.67H261.24C261.857 154.928 262.882 153.571 264.316 152.6C265.75 151.616 267.474 151.124 269.488 151.124C271.42 151.124 273.097 151.563 274.519 152.44C275.953 153.316 277.061 154.525 277.843 156.066C278.637 157.606 279.028 159.372 279.016 161.363V178.783H269.204V163.425C269.216 162.074 268.878 161.013 268.191 160.243C267.515 159.473 266.549 159.088 265.293 159.088C264.499 159.088 263.8 159.265 263.196 159.621C262.603 159.965 262.141 160.462 261.809 161.114C261.489 161.754 261.323 162.524 261.312 163.425Z" fill="black"/>
</svg>
