<svg width="258" height="258" viewBox="0 0 258 258" fill="none" xmlns="http://www.w3.org/2000/svg">
<g filter="url(#filter0_d_42_1567)">
<rect x="4" width="250" height="250" rx="66" fill="white"/>
<path d="M42.99 71.59L58.29 113.35L73.59 71.59H82.41L63.06 121H53.43L34.17 71.59H42.99ZM106.397 121.63C102.557 121.63 99.0171 121.03 95.7771 119.83C92.5971 118.63 89.8371 116.95 87.4971 114.79C85.1571 112.57 83.3571 109.93 82.0971 106.87C80.8371 103.81 80.2071 100.39 80.2071 96.61C80.2071 92.89 80.8971 89.47 82.2771 86.35C83.7171 83.23 85.6371 80.53 88.0371 78.25C90.4971 75.91 93.2871 74.11 96.4071 72.85C99.5871 71.59 102.887 70.96 106.307 70.96C109.367 70.96 112.157 71.38 114.677 72.22C117.197 73 119.357 74.11 121.157 75.55C123.017 76.99 124.427 78.64 125.387 80.5C126.407 82.36 126.917 84.4 126.917 86.62C126.917 89.74 126.047 92.35 124.307 94.45C122.567 96.49 120.257 98.11 117.377 99.31C114.497 100.45 111.317 101.26 107.837 101.74C104.417 102.16 100.967 102.31 97.4871 102.19C96.5271 102.19 95.4771 102.16 94.3371 102.1C93.1971 102.04 92.1471 101.98 91.1871 101.92C90.2271 101.8 89.4771 101.71 88.9371 101.65C89.2971 103.99 90.2571 106.15 91.8171 108.13C93.3771 110.11 95.4171 111.67 97.9371 112.81C100.457 113.95 103.277 114.52 106.397 114.52C108.797 114.52 111.077 114.1 113.237 113.26C115.457 112.42 117.407 111.34 119.087 110.02C120.827 108.7 122.237 107.35 123.317 105.97L129.437 110.47C127.877 112.63 125.927 114.55 123.587 116.23C121.247 117.91 118.637 119.23 115.757 120.19C112.877 121.15 109.757 121.63 106.397 121.63ZM97.6671 95.35C100.067 95.35 102.497 95.23 104.957 94.99C107.417 94.69 109.697 94.24 111.797 93.64C113.897 92.98 115.577 92.08 116.837 90.94C118.157 89.8 118.817 88.39 118.817 86.71C118.817 85.03 118.277 83.56 117.197 82.3C116.177 80.98 114.737 79.96 112.877 79.24C111.077 78.46 109.037 78.07 106.757 78.07C103.337 78.07 100.247 78.88 97.4871 80.5C94.7871 82.06 92.6271 84.13 91.0071 86.71C89.4471 89.29 88.5771 92.02 88.3971 94.9C89.4771 95.02 90.7971 95.14 92.3571 95.26C93.9771 95.32 95.7471 95.35 97.6671 95.35ZM153.111 121.63C148.431 121.63 144.261 120.61 140.601 118.57C137.001 116.47 134.181 113.53 132.141 109.75C130.101 105.91 129.081 101.41 129.081 96.25C129.081 91.09 130.101 86.62 132.141 82.84C134.181 79.06 137.001 76.15 140.601 74.11C144.261 72.01 148.431 70.96 153.111 70.96C155.871 70.96 158.421 71.26 160.761 71.86C163.101 72.46 165.201 73.39 167.061 74.65C168.921 75.91 170.511 77.5 171.831 79.42C173.211 81.28 174.321 83.47 175.161 85.99L167.331 88.51C166.191 85.09 164.421 82.48 162.021 80.68C159.681 78.88 156.711 77.98 153.111 77.98C150.171 77.98 147.501 78.67 145.101 80.05C142.761 81.43 140.901 83.47 139.521 86.17C138.201 88.87 137.541 92.23 137.541 96.25C137.541 100.27 138.201 103.66 139.521 106.42C140.901 109.12 142.761 111.16 145.101 112.54C147.501 113.92 150.171 114.61 153.111 114.61C157.251 114.61 160.581 113.53 163.101 111.37C165.621 109.15 167.331 106.27 168.231 102.73L175.881 104.62C175.041 107.86 173.601 110.77 171.561 113.35C169.581 115.93 167.061 117.97 164.001 119.47C160.941 120.91 157.311 121.63 153.111 121.63ZM195.449 121.63C192.029 121.63 189.149 120.49 186.809 118.21C184.529 115.87 183.389 112.81 183.389 109.03V78.43H175.019V71.59H203.009V78.43H191.759V109.39C191.759 110.95 192.179 112.15 193.019 112.99C193.919 113.83 194.969 114.25 196.169 114.25C197.069 114.25 197.879 114.1 198.599 113.8C199.379 113.44 200.099 112.99 200.759 112.45L204.809 118.12C203.549 119.26 202.139 120.13 200.579 120.73C199.019 121.33 197.309 121.63 195.449 121.63ZM179.429 75.19V71.59C180.689 71.59 181.649 71.26 182.309 70.6C183.029 69.88 183.389 68.86 183.389 67.54V59.26H191.759V66.1C191.759 66.94 191.579 67.75 191.219 68.53C190.919 69.31 190.439 69.97 189.779 70.51C189.119 71.05 188.339 71.41 187.439 71.59L179.429 75.19ZM207.304 121V71.59H215.584V121H207.304ZM212.614 95.71L215.584 82.57C216.724 78.91 218.704 76.06 221.524 74.02C224.344 71.98 227.704 70.96 231.604 70.96V79.6C231.124 79.48 230.644 79.42 230.164 79.42C229.744 79.36 229.324 79.33 228.904 79.33C226.324 79.33 224.014 80.02 221.974 81.4C219.994 82.72 218.434 84.61 217.294 87.07C216.154 89.47 215.584 92.35 215.584 95.71H212.614Z" fill="#FF0000"/>
<g clip-path="url(#clip0_42_1567)">
<path d="M130.331 163.159L165.394 143.289C164.836 142.699 164.166 142.11 163.386 141.667L134.57 125.189C131.855 123.604 128.769 123.604 126.092 125.189L97.2388 141.667C96.4579 142.11 95.8258 142.699 95.2309 143.326L130.331 163.159ZM127.208 168.615L93 149.335C93 149.482 93 149.667 93 149.814V181.997C93 185.056 94.5616 187.748 97.2388 189.259L126.092 205.811C126.464 205.995 126.798 206.254 127.208 206.364V168.615ZM133.417 168.615V206.364C133.789 206.254 134.16 206.032 134.57 205.811L163.386 189.259C166.063 187.748 167.624 185.056 167.624 181.997V149.777C167.624 149.63 167.624 149.446 167.624 149.298L133.417 168.615Z" fill="#FF0000"/>
</g>
</g>
<defs>
<filter id="filter0_d_42_1567" x="0" y="0" width="258" height="258" filterUnits="userSpaceOnUse" color-interpolation-filters="sRGB">
<feFlood flood-opacity="0" result="BackgroundImageFix"/>
<feColorMatrix in="SourceAlpha" type="matrix" values="0 0 0 0 0 0 0 0 0 0 0 0 0 0 0 0 0 0 127 0" result="hardAlpha"/>
<feOffset dy="4"/>
<feGaussianBlur stdDeviation="2"/>
<feComposite in2="hardAlpha" operator="out"/>
<feColorMatrix type="matrix" values="0 0 0 0 0 0 0 0 0 0 0 0 0 0 0 0 0 0 0.25 0"/>
<feBlend mode="normal" in2="BackgroundImageFix" result="effect1_dropShadow_42_1567"/>
<feBlend mode="normal" in="SourceGraphic" in2="effect1_dropShadow_42_1567" result="shape"/>
</filter>
<clipPath id="clip0_42_1567">
<rect width="76" height="83" fill="white" transform="translate(93 124)"/>
</clipPath>
</defs>
</svg>
